# xmcd
#
# Track frame offsets:
#	150
#	15457
#	28735
#	43322
#	64165
#	81122
#	92680
#	106690
#	120562
#	136930
#	150527
#	167250
#	182725
#	198332
#	213620
#	227690
#
# Disc length: 3202
#
# Revision: 1
# Processed by: cddbd v1.5.1PL0 Copyright (c) Steve Scherf et al.
# Submitted via: ExactAudioCopy v0.90b4
# Normalized: r0:DSETVAR1
#
DISCID=c90c8010
DTITLE=Various Artist - Country Legends Volume 2 - CD 3 of 3
DYEAR=1994
DGENRE=Country
TTITLE0=Waylon Jennings - Just Talkin'
TTITLE1=Tammy Wynette - Apartment #9
TTITLE2=Ricky Skaggs - Heartbroke
TTITLE3=J.D. Souther - White Rhythm And Blues
TTITLE4=Les Taylor - For The Rest Of Your Life
TTITLE5=The Byrds - You Ain't Going Nowhere
TTITLE6=Ricky Van Shelton - If They Turn Off Our Lights
TTITLE7=Willie Nelson - Ain't It Neccessarily So
TTITLE8=Charlie Rich - Life Has Its Little Ups And Downs
TTITLE9=Mike Reid - Till You Were Gone
TTITLE10=Johnny Cash - A Boy Named Sue
TTITLE11=Bobbie Cryner - Daddy Laid The Blues On Me
TTITLE12=Collin Raye - What They Don't Know
TTITLE13=Merle Haggard - Twinkle Twinkle Lucky Star
TTITLE14=George Jones - The Grand Tour
TTITLE15=Vern Gosdin - Way Down Deep
EXTD=
EXTT0=
EXTT1=
EXTT2=
EXTT3=
EXTT4=
EXTT5=
EXTT6=
EXTT7=
EXTT8=
EXTT9=
EXTT10=
EXTT11=
EXTT12=
EXTT13=
EXTT14=
EXTT15=
PLAYORDER=
